<?xml version="1.0" standalone="no"?>
<!DOCTYPE svg PUBLIC "-//W3C//DTD SVG 20010904//EN"
 "http://www.w3.org/TR/2001/REC-SVG-20010904/DTD/svg10.dtd">
<svg version="1.0" xmlns="http://www.w3.org/2000/svg"
 width="480.000000pt" height="480.000000pt" viewBox="0 0 480.000000 480.000000"
 preserveAspectRatio="xMidYMid meet">
<metadata>
Created by potrace 1.14, written by Peter Selinger 2001-2017
</metadata>
<g transform="translate(0.000000,480.000000) scale(0.100000,-0.100000)"
fill="#000000" stroke="none">
<path d="M2225 4532 c-20 -7 -20 -8 -3 -24 17 -17 18 -17 18 1 0 11 6 22 13
24 18 8 -4 6 -28 -1z"/>
<path d="M2384 4521 c-87 -53 -81 -205 10 -249 33 -16 45 -9 23 13 -17 17 -37
76 -37 111 0 38 30 123 48 133 13 8 14 10 2 11 -8 0 -29 -9 -46 -19z"/>
<path d="M2499 4521 c41 -41 41 -178 2 -232 l-23 -31 23 7 c36 10 89 70 90
102 3 87 -15 134 -61 158 -40 21 -54 19 -31 -4z"/>
<path d="M2035 4510 c-11 -5 -14 -9 -7 -9 6 -1 12 -8 12 -18 0 -17 197 -223
213 -223 5 0 7 19 5 43 -5 37 -15 51 -92 127 -48 47 -93 86 -99 87 -7 1 -21
-2 -32 -7z"/>
<path d="M2712 4490 c-36 -22 -71 -87 -72 -132 0 -40 28 -93 60 -112 38 -22
54 -20 30 4 -16 16 -20 33 -20 83 0 84 31 147 80 164 l35 12 -40 0 c-23 1 -54
-7 -73 -19z"/>
<path d="M2855 4475 c14 -13 25 -37 26 -52 l1 -28 8 25 c13 40 11 60 -3 54 -8
-3 -20 2 -27 11 -7 8 -16 15 -21 15 -4 0 3 -11 16 -25z"/>
<path d="M1825 4473 c-27 -7 -43 -23 -23 -23 12 0 18 -11 20 -37 3 -38 3 -38
14 15 6 28 10 51 10 51 -1 -1 -10 -3 -21 -6z"/>
<path d="M2995 4450 c8 -14 -55 -222 -71 -236 -11 -9 -5 -14 25 -22 47 -15 54
-15 46 -2 -6 10 47 199 65 232 7 13 3 19 -22 27 -39 14 -51 14 -43 1z"/>
<path d="M2242 4420 c0 -14 2 -19 5 -12 2 6 2 18 0 25 -3 6 -5 1 -5 -13z"/>
<path d="M1635 4415 c-22 -8 -35 -14 -29 -14 6 -1 50 -51 98 -111 49 -61 93
-109 100 -107 6 2 12 21 14 43 2 21 0 36 -4 32 -8 -9 -123 140 -124 160 0 14
-2 14 -55 -3z"/>
<path d="M3133 4402 c10 -10 17 -27 18 -38 0 -14 4 -11 11 10 11 30 0 46 -31
46 -11 0 -11 -4 2 -18z"/>
<path d="M3263 4367 c2 -6 0 -20 -5 -30 -5 -9 -5 -23 -1 -30 4 -6 21 -66 38
-131 16 -66 35 -121 41 -123 5 -2 17 12 26 30 15 31 15 38 -2 93 -10 32 -27
88 -37 123 -14 49 -24 66 -41 72 -17 7 -22 6 -19 -4z"/>
<path d="M1445 4340 c-17 -7 -15 -9 11 -9 37 -1 65 -29 93 -91 23 -50 27 -110
9 -128 -8 -8 -9 -12 -1 -12 18 0 52 49 59 85 13 73 -54 166 -119 164 -18 0
-41 -4 -52 -9z"/>
<path d="M2799 4337 c15 -15 14 -80 -1 -96 -11 -11 -8 -12 16 -7 19 5 32 3 37
-5 5 -9 10 -3 14 17 3 16 9 41 14 55 8 26 7 27 -41 37 -35 7 -46 6 -39 -1z"/>
<path d="M3080 4325 c-7 -8 -19 -15 -28 -15 -13 0 -13 -2 1 -18 10 -10 17 -25
18 -33 1 -8 7 6 15 30 15 49 13 59 -6 36z"/>
<path d="M1360 4305 c-25 -13 -40 -24 -34 -25 15 0 108 -216 101 -234 -4 -11
6 -9 43 7 32 15 43 24 33 28 -9 3 -38 54 -65 113 -37 84 -46 112 -37 122 15
18 12 17 -41 -11z"/>
<path d="M3428 4297 c7 -8 10 -23 6 -33 -4 -14 -3 -16 4 -5 5 7 15 17 21 20 7
5 2 12 -15 20 -24 10 -26 10 -16 -2z"/>
<path d="M2060 4273 c0 -12 -6 -24 -12 -26 -7 -3 2 -6 21 -6 l34 -1 -19 23
c-10 12 -20 24 -21 26 -2 2 -3 -5 -3 -16z"/>
<path d="M3509 4223 c-7 -16 -15 -32 -17 -37 -3 -5 9 2 26 14 20 15 38 21 54
17 23 -6 23 -6 -2 13 -34 26 -44 25 -61 -7z"/>
<path d="M3102 4200 c-13 -16 -30 -30 -40 -31 -14 0 -14 -2 3 -9 34 -15 41
-11 52 30 5 22 9 40 8 40 0 0 -11 -13 -23 -30z"/>
<path d="M3402 4195 c-17 -37 -14 -45 4 -12 9 16 14 31 11 33 -2 2 -9 -7 -15
-21z"/>
<path d="M1170 4200 c-13 -9 -13 -10 1 -10 18 0 53 -36 63 -64 7 -20 -17 -66
-34 -66 -15 0 -71 92 -66 107 7 18 0 16 -40 -11 -20 -13 -31 -25 -26 -27 14
-5 132 -197 132 -214 0 -11 8 -10 35 6 l35 21 -24 31 c-44 60 -49 75 -26 87
17 9 27 4 64 -30 49 -45 64 -48 97 -20 20 16 21 19 7 20 -10 0 -33 14 -53 31
-26 23 -42 30 -60 26 -25 -4 -25 -4 -10 19 18 28 20 75 3 92 -14 14 -77 16
-98 2z"/>
<path d="M3550 4117 c-30 -51 -64 -102 -76 -113 l-20 -21 42 -26 c35 -21 41
-22 37 -7 -3 10 22 61 61 124 l65 106 -27 14 -27 14 -55 -91z"/>
<path d="M3176 4155 c-3 -8 -13 -15 -23 -15 -14 -1 -13 -4 7 -15 31 -18 44
-19 33 -2 -4 6 -6 20 -5 30 4 21 -4 23 -12 2z"/>
<path d="M3679 4156 c9 -10 12 -30 8 -56 -3 -22 -4 -40 -2 -40 4 0 45 69 45
75 0 3 -15 12 -32 21 -31 16 -32 16 -19 0z"/>
<path d="M3829 4018 c-9 -7 -21 -33 -28 -58 -7 -25 -17 -49 -21 -55 -4 -5 -10
-27 -14 -47 -4 -21 -13 -44 -21 -52 -13 -13 -11 -18 17 -41 l32 -27 7 23 c4
13 24 75 43 138 20 62 36 117 36 122 0 13 -34 11 -51 -3z"/>
<path d="M880 4000 c-23 -18 -23 -20 -5 -20 10 0 39 -19 64 -42 l45 -43 -43
48 c-24 28 -40 54 -37 63 7 18 6 18 -24 -6z"/>
<path d="M3765 3980 c-3 -6 1 -7 9 -4 18 7 21 14 7 14 -6 0 -13 -4 -16 -10z"/>
<path d="M3710 3950 c-9 -6 -10 -10 -3 -10 6 0 15 5 18 10 8 12 4 12 -15 0z"/>
<path d="M3642 3915 l-43 -23 33 -23 c23 -16 29 -18 19 -6 -12 16 -11 21 14
47 16 17 27 29 24 29 -2 -1 -23 -12 -47 -24z"/>
<path d="M762 3895 c-24 -23 -32 -35 -21 -35 9 0 45 -33 82 -74 36 -40 78 -77
92 -80 47 -12 126 50 124 98 -1 17 -2 15 -9 -7 -13 -41 -29 -57 -60 -57 -23 0
-42 16 -100 81 -41 47 -69 87 -66 95 8 22 -1 17 -42 -21z"/>
<path d="M4006 3896 c5 -13 -16 -39 -83 -107 l-89 -89 28 -27 c15 -15 28 -22
28 -16 0 18 161 183 178 183 17 0 16 1 -46 54 -20 18 -22 18 -16 2z"/>
<path d="M990 3876 c0 -2 8 -10 18 -17 15 -13 16 -12 3 4 -13 16 -21 21 -21
13z"/>
<path d="M4083 3734 c-24 -24 -25 -29 -18 -90 10 -96 -27 -142 -78 -96 -19 16
-20 16 -9 -4 6 -12 27 -29 46 -38 32 -15 38 -15 66 -1 37 19 44 47 35 129 -7
73 9 102 51 92 33 -9 30 0 -6 19 -40 21 -57 19 -87 -11z"/>
<path d="M606 3731 c-4 -5 -2 -19 2 -31 6 -16 35 -32 112 -61 57 -22 107 -44
111 -50 4 -6 16 2 32 22 l25 32 -107 37 c-58 21 -119 43 -134 49 -34 13 -34
13 -41 2z"/>
<path d="M4211 3672 c0 -13 -6 -33 -12 -44 -11 -20 -11 -20 15 -2 26 19 33 34
17 34 -5 0 -12 8 -14 18 -3 12 -5 11 -6 -6z"/>
<path d="M3954 3628 c-16 -18 -25 -29 -20 -25 6 4 16 -3 23 -15 12 -23 12 -23
13 6 0 16 7 38 17 48 9 10 12 18 6 18 -5 0 -22 -15 -39 -32z"/>
<path d="M699 3596 c-19 -16 -24 -27 -18 -37 7 -12 9 -12 9 0 0 8 10 25 22 38
28 30 21 29 -13 -1z"/>
<path d="M703 3515 c8 -16 16 -36 18 -43 3 -10 10 -7 24 9 17 19 17 21 3 16
-11 -4 -24 3 -38 21 l-21 27 14 -30z"/>
<path d="M596 3448 c-25 -14 -128 -235 -175 -376 -70 -208 -93 -354 -99 -608
-3 -171 0 -246 12 -335 53 -362 181 -675 395 -965 107 -145 338 -374 377 -374
21 0 17 14 -10 30 -82 50 -309 300 -408 450 -411 621 -461 1397 -133 2055 36
71 63 130 62 131 -1 1 -10 -2 -21 -8z"/>
<path d="M4180 3456 c0 -2 24 -51 54 -109 62 -122 135 -316 165 -440 44 -178
55 -282 54 -507 0 -191 -3 -230 -27 -353 -62 -320 -189 -611 -385 -875 -35
-48 -131 -153 -213 -234 -149 -149 -177 -199 -51 -90 310 268 559 679 651
1077 42 183 54 315 49 540 -5 221 -16 302 -67 500 -50 193 -184 495 -221 495
-5 0 -9 -2 -9 -4z"/>
<path d="M1690 3254 c-204 -12 -364 -50 -438 -104 -55 -40 -81 -94 -94 -198
-6 -48 -13 -89 -14 -91 -2 -2 -10 1 -17 8 -56 46 -245 67 -310 35 -97 -49
-130 -129 -88 -212 18 -36 89 -111 156 -164 94 -77 335 -212 430 -243 37 -12
71 -35 130 -91 91 -86 165 -125 289 -156 l84 -21 12 -41 c17 -57 80 -182 128
-253 112 -165 300 -312 437 -343 227 -51 551 -20 740 70 40 19 94 59 152 115
50 47 96 85 102 85 39 0 272 121 418 217 99 65 222 183 247 237 24 50 18 121
-14 164 -62 84 -240 96 -386 25 l-42 -20 -10 92 c-16 137 -48 192 -145 241
-92 47 -318 84 -514 84 l-83 0 6 39 c5 30 3 39 -11 45 -25 9 -32 1 -39 -43 -7
-46 -7 -46 -166 -56 -209 -13 -456 -61 -604 -118 -86 -32 -188 -97 -218 -138
-57 -76 -32 -164 64 -225 114 -73 321 -109 623 -108 244 0 371 14 565 63 210
53 400 137 400 177 0 16 -16 19 -25 4 -4 -6 -24 -19 -46 -31 l-40 -20 -28 30
c-69 74 -216 105 -496 105 -252 0 -430 -23 -609 -80 -104 -33 -153 -58 -197
-101 l-37 -35 -43 22 c-76 38 -119 91 -119 144 0 150 566 288 1120 273 337
-10 508 -58 560 -157 23 -44 40 -135 40 -212 0 -32 2 -58 5 -58 3 0 22 11 43
23 68 43 130 61 216 61 105 1 151 -21 184 -86 18 -35 22 -55 16 -82 -12 -69
-128 -173 -319 -288 -100 -60 -259 -135 -303 -144 -18 -4 -58 -35 -108 -86
-96 -97 -189 -146 -339 -178 -202 -43 -478 -34 -602 20 -164 72 -326 238 -425
435 -37 72 -88 221 -88 255 0 25 -17 35 -36 19 -12 -10 -14 -23 -9 -56 4 -25
2 -43 -3 -43 -22 0 -186 52 -222 70 -21 11 -76 55 -122 98 -60 57 -95 82 -128
91 -101 30 -326 156 -443 248 -84 67 -122 122 -121 174 4 135 194 180 377 91
31 -16 59 -26 62 -24 3 3 5 35 5 71 0 204 78 273 357 317 199 31 554 21 818
-22 185 -31 363 -95 420 -151 55 -56 20 -141 -79 -194 l-45 -24 -33 32 c-94
88 -307 145 -612 163 -301 17 -556 -25 -621 -101 l-25 -31 -46 26 c-50 28 -64
32 -64 16 0 -21 113 -81 212 -115 339 -113 759 -136 1099 -60 159 35 239 80
271 152 26 60 17 95 -41 152 -102 101 -328 172 -638 200 -122 11 -400 19 -483
15z"/>
<path d="M973 2739 c-68 -20 -64 -67 14 -150 97 -104 356 -258 330 -196 -3 6
-21 48 -40 92 -19 44 -42 106 -51 138 -13 45 -24 62 -49 78 -57 35 -154 53
-204 38z m160 -55 c38 -13 47 -20 52 -47 4 -18 22 -69 41 -115 19 -45 34 -85
34 -88 0 -11 -115 58 -187 112 -95 73 -121 112 -91 142 17 17 96 15 151 -4z"/>
<path d="M3626 2125 c-33 -13 -65 -30 -73 -38 -7 -7 -22 -46 -33 -86 -12 -40
-37 -109 -57 -152 -20 -44 -33 -82 -30 -85 11 -12 185 88 264 151 133 106 175
173 134 214 -30 30 -126 29 -205 -4z m148 -25 c37 -14 33 -43 -14 -94 -43 -47
-157 -129 -227 -165 -46 -23 -49 -22 -31 12 6 12 26 65 44 117 36 103 46 113
126 129 60 12 73 12 102 1z"/>
<path d="M1623 1760 c-38 -23 -58 -53 -68 -97 -4 -18 -9 -33 -12 -33 -3 0 -18
11 -35 25 -16 14 -38 25 -48 25 -44 0 -31 -118 19 -175 15 -17 33 -45 40 -63
17 -40 26 -40 42 -3 10 23 19 28 43 27 l31 -1 1 85 c1 126 1 127 44 174 22 24
40 46 40 50 0 14 -67 5 -97 -14z"/>
<path d="M1712 1738 c-41 -44 -52 -80 -52 -166 0 -46 -5 -92 -10 -103 -9 -16
-7 -19 15 -19 16 0 39 14 64 39 31 31 42 52 51 97 14 68 8 128 -16 155 -22 24
-26 24 -52 -3z"/>
<path d="M1382 1657 c-36 -38 -44 -84 -27 -142 19 -67 81 -125 134 -125 35 0
25 37 -26 102 -49 62 -58 98 -40 161 10 35 -10 37 -41 4z"/>
<path d="M3436 924 c-9 -24 -7 -101 5 -168 13 -72 1 -130 -35 -173 -34 -40
-53 -26 -61 46 -4 34 -11 61 -15 61 -10 0 -1 -108 12 -132 18 -36 72 -14 94
38 8 19 18 34 23 34 5 0 16 -39 24 -86 9 -47 21 -92 28 -100 18 -22 47 -17 65
11 21 32 13 105 -13 122 -60 40 -59 38 -35 68 12 15 22 37 22 49 0 18 -3 16
-20 -11 -22 -36 -47 -43 -52 -15 -2 9 2 44 9 77 15 73 17 150 3 176 -13 23
-46 25 -54 3z m46 -28 c7 -33 -3 -136 -12 -136 -10 0 -20 53 -20 111 0 35 4
49 14 49 7 0 16 -11 18 -24z m57 -322 c31 -26 38 -53 25 -102 -9 -34 -37 -23
-51 19 -19 60 -26 109 -15 109 6 0 24 -12 41 -26z"/>
<path d="M3200 740 c0 -54 -4 -72 -15 -76 -8 -4 -15 -10 -15 -15 0 -5 7 -9 15
-9 11 0 15 -13 15 -54 0 -39 6 -60 21 -80 11 -14 24 -26 28 -26 15 0 51 41 51
58 0 13 -6 9 -25 -13 -24 -29 -25 -29 -40 -11 -18 24 -21 136 -3 154 9 9 9 12
0 12 -8 0 -12 20 -12 59 0 33 -4 63 -10 66 -6 4 -10 -20 -10 -65z"/>
<path d="M3305 770 c3 -5 8 -10 11 -10 2 0 4 5 4 10 0 6 -5 10 -11 10 -5 0 -7
-4 -4 -10z"/>
<path d="M1256 751 c-45 -30 -68 -73 -57 -104 6 -14 19 -31 30 -36 25 -14 101
-14 101 -1 0 6 -10 8 -24 4 -14 -3 -37 1 -55 10 -41 22 -41 57 -1 97 36 36 75
37 75 2 1 -33 20 -49 40 -33 35 29 2 80 -51 80 -16 0 -42 -9 -58 -19z"/>
<path d="M1737 749 c-9 -5 -43 -46 -74 -91 -59 -84 -95 -114 -151 -124 -56
-11 -61 9 -13 61 41 44 41 45 26 75 -12 22 -23 30 -43 30 -55 0 -122 -66 -122
-119 0 -24 33 -44 60 -36 13 4 20 0 25 -16 6 -18 13 -20 48 -16 23 2 53 8 66
12 22 8 22 5 -12 -47 -54 -86 -69 -117 -62 -138 10 -32 61 -26 97 11 29 28 30
34 25 85 -5 52 -5 54 19 54 29 0 64 16 64 29 0 5 -13 4 -30 -2 -22 -8 -33 -8
-41 0 -19 19 -4 38 55 78 69 46 128 112 124 140 -3 23 -34 30 -61 14z m43 -21
c-1 -17 -17 -37 -68 -82 -23 -22 -45 -36 -48 -33 -6 6 30 60 70 105 21 24 46
29 46 10z m-270 -63 c11 -13 6 -23 -35 -60 -26 -25 -56 -45 -67 -45 -45 0 -27
68 27 102 37 22 59 23 75 3z m83 -230 c8 -47 2 -60 -38 -85 -42 -26 -45 -25
-45 8 0 30 56 126 69 118 5 -3 11 -22 14 -41z"/>
<path d="M1885 670 c-10 -11 -16 -22 -13 -25 3 -3 13 4 23 15 10 11 16 22 13
25 -3 3 -13 -4 -23 -15z"/>
<path d="M2905 640 c3 -5 8 -10 11 -10 2 0 4 5 4 10 0 6 -5 10 -11 10 -5 0 -7
-4 -4 -10z"/>
<path d="M3049 617 c-44 -34 -56 -134 -20 -170 19 -20 20 -20 48 -1 15 10 38
17 51 15 24 -3 62 23 62 42 0 6 -9 2 -20 -8 -35 -32 -51 -13 -44 52 6 56 5 59
-20 71 -33 15 -37 15 -57 -1z m54 -52 c-5 -67 -21 -105 -48 -105 -27 0 -39 41
-25 90 12 44 29 62 54 58 18 -3 21 -9 19 -43z"/>
<path d="M1755 552 c-32 -30 -39 -44 -37 -69 2 -17 14 -41 28 -54 24 -22 26
-23 66 -9 23 8 43 21 46 28 3 9 -5 8 -30 -3 -41 -20 -88 -7 -88 25 0 16 7 20
30 20 40 0 95 24 108 46 17 31 -3 54 -46 54 -30 0 -46 -8 -77 -38z m103 16
c18 -18 15 -26 -18 -43 -66 -34 -108 -7 -52 34 31 23 53 26 70 9z"/>
<path d="M2790 563 c-32 -12 -61 -48 -66 -85 -4 -24 -15 -43 -31 -54 -27 -17
-39 -11 -45 21 -2 12 -11 20 -23 20 -17 0 -20 -7 -20 -45 0 -36 -4 -45 -19
-48 -24 -5 -36 14 -36 58 0 72 42 110 81 74 10 -9 19 -13 19 -7 0 21 -39 45
-63 39 -51 -12 -76 -127 -37 -166 25 -25 31 -25 63 0 14 11 34 20 44 20 11 0
28 6 38 14 17 12 21 11 38 -10 11 -15 29 -24 45 -24 30 0 92 34 92 50 0 14 -9
12 -26 -5 -21 -21 -64 -30 -83 -18 -18 11 -26 53 -17 89 10 40 56 73 56 40 0
-7 6 -19 14 -25 21 -17 50 14 36 39 -8 14 -35 33 -43 29 -1 0 -9 -3 -17 -6z
m37 -45 c-3 -8 -6 -5 -6 6 -1 11 2 17 5 13 3 -3 4 -12 1 -19z m-187 -72 c0 -3
-4 -8 -10 -11 -5 -3 -10 -1 -10 4 0 6 5 11 10 11 6 0 10 -2 10 -4z"/>
<path d="M2902 492 c-3 -81 11 -103 53 -84 14 7 25 16 25 22 0 7 -6 7 -20 0
-33 -18 -42 -3 -38 63 2 36 -1 62 -7 64 -7 2 -12 -23 -13 -65z"/>
<path d="M2047 521 c-35 -31 -59 -88 -50 -121 6 -24 36 -34 62 -21 14 8 22 7
31 -4 14 -17 43 -19 70 -5 13 7 21 6 30 -5 21 -25 59 -18 78 14 10 18 28 32
44 35 15 3 28 10 28 17 0 7 -11 8 -29 4 -38 -8 -45 16 -18 62 20 35 16 53 -13
53 -19 0 -30 -19 -30 -51 0 -10 -9 -24 -20 -31 -28 -18 -25 -29 8 -23 19 4 15
0 -15 -14 -24 -11 -43 -24 -43 -28 0 -5 -13 -14 -30 -20 -23 -9 -32 -8 -40 2
-9 11 -5 23 14 52 32 46 33 77 4 97 -31 22 -43 20 -81 -13z m78 -11 c8 -25
-52 -113 -79 -118 -49 -10 -38 67 15 113 37 30 56 32 64 5z m165 11 c0 -6 -4
-13 -10 -16 -5 -3 -10 1 -10 9 0 9 5 16 10 16 6 0 10 -4 10 -9z m-30 -119 c0
-5 -8 -16 -18 -25 -21 -19 -48 -7 -39 17 6 16 57 23 57 8z"/>
<path d="M2417 543 c-4 -3 -7 -19 -7 -36 0 -17 -9 -37 -22 -49 l-23 -19 28 5
c38 9 34 -2 -8 -20 -44 -18 -53 -38 -29 -65 24 -27 55 -20 79 18 11 17 30 34
43 37 31 9 28 25 -5 23 -22 -2 -29 3 -31 20 -2 13 3 32 12 44 8 12 12 28 9 35
-5 14 -35 19 -46 7z m27 -28 c-4 -8 -8 -15 -10 -15 -2 0 -4 7 -4 15 0 8 4 15
10 15 5 0 7 -7 4 -15z m-26 -121 c-5 -26 -35 -41 -50 -26 -11 11 -9 16 6 28
26 19 48 18 44 -2z"/>
</g>
</svg>
